<svg width="48" height="48" viewBox="0 0 48 48" fill="none" xmlns="http://www.w3.org/2000/svg">
<path d="M11.3638 14.469H14.1754V17.2807H11.3638V14.469Z" fill="#5A73EF"/>
<path d="M11.3638 25.7157H14.1754V28.5274H11.3638V25.7157Z" fill="#5A73EF"/>
<path d="M36.2255 27.4833C37.263 27.4833 38.2696 27.6192 39.2275 27.875V4.21761C39.2275 3.44158 38.5976 2.81177 37.8216 2.81177H33.5994C33.5994 6.47163 30.6218 9.4492 26.962 9.4492H15.1942C13.3647 9.4492 11.7049 8.70504 10.5034 7.50258C9.30091 6.30106 8.55675 4.64123 8.55675 2.81177H4.33455C3.55853 2.81177 2.92871 3.44158 2.92871 4.21761V39.551H24.5767C24.3106 33.0692 29.5731 27.4833 36.2255 27.4833ZM29.2319 11.6573H31.261C32.0371 11.6573 32.6669 12.2871 32.6669 13.0631C32.6669 13.8392 32.0371 14.469 31.261 14.469H29.2319C28.4559 14.469 27.8261 13.8392 27.8261 13.0631C27.8261 12.2871 28.4559 11.6573 29.2319 11.6573ZM21.2046 11.6573H24.1709C24.9469 11.6573 25.5768 12.2871 25.5768 13.0631C25.5768 13.8392 24.9469 14.469 24.1709 14.469H21.2046C20.4286 14.469 19.7988 13.8392 19.7988 13.0631C19.7988 12.2871 20.4286 11.6573 21.2046 11.6573ZM21.2046 17.2807H31.261C32.0371 17.2807 32.6669 17.9105 32.6669 18.6865C32.6669 19.4635 32.0371 20.0923 31.261 20.0923H21.2046C20.4286 20.0923 19.7988 19.4635 19.7988 18.6865C19.7988 17.9105 20.4286 17.2807 21.2046 17.2807ZM16.9871 29.9332C16.9871 30.7102 16.3573 31.339 15.5813 31.339H9.9579C9.18188 31.339 8.55206 30.7102 8.55206 29.9332V24.3098C8.55206 23.5338 9.18188 22.904 9.9579 22.904H15.5813C16.3573 22.904 16.9871 23.5338 16.9871 24.3098V29.9332ZM16.9871 18.6865C16.9871 19.4635 16.3573 20.0923 15.5813 20.0923H9.9579C9.18188 20.0923 8.55206 19.4635 8.55206 18.6865V13.0631C8.55206 12.2871 9.18188 11.6573 9.9579 11.6573H15.5813C16.3573 11.6573 16.9871 12.2871 16.9871 13.0631V18.6865ZM19.7988 24.4617C19.7988 23.6857 20.4286 23.0558 21.2046 23.0558H31.261C32.0371 23.0558 32.6669 23.6857 32.6669 24.4617C32.6669 25.2377 32.0371 25.8675 31.261 25.8675H21.2046C20.4286 25.8675 19.7988 25.2377 19.7988 24.4617Z" fill="#5A73EF"/>
<path d="M15.1944 6.63743H26.9622C29.0719 6.63743 30.788 4.92137 30.788 2.81168V1.40584C30.788 0.629815 30.1591 0 29.3821 0H12.7745C11.9975 0 11.3687 0.629815 11.3687 1.40584V2.81168C11.3687 4.92137 13.0847 6.63743 15.1944 6.63743Z" fill="#5A73EF"/>
<path d="M36.2254 30.2948C31.3481 30.2948 27.3799 34.263 27.3799 39.1403C27.3799 44.0298 31.3434 47.9859 36.2254 47.9859C41.204 47.9859 45.0709 43.9117 45.0709 39.1403C45.0709 34.368 41.203 30.2948 36.2254 30.2948ZM40.7419 37.9632L36.3988 42.3063C35.8496 42.8555 34.9583 42.8536 34.4109 42.3063L31.7099 39.6043C31.1606 39.056 31.1606 38.1656 31.7099 37.6164C32.2581 37.0672 33.1485 37.0672 33.6977 37.6164L35.4053 39.324L38.7531 35.9753C39.3023 35.4261 40.1927 35.4261 40.7419 35.9753C41.2911 36.5245 41.2911 37.414 40.7419 37.9632Z" fill="#5A73EF"/>
<path d="M28.649 48C24.23 47.999 16.8193 47.9859 4.33455 47.9859C3.55853 47.9859 2.92871 47.3561 2.92871 46.5801V42.3625H25.0172C25.6529 44.5877 26.9438 46.5464 28.649 48Z" fill="#5A73EF"/>
</svg>
