<svg width="48" height="48" viewBox="0 0 48 48" fill="none" xmlns="http://www.w3.org/2000/svg">
<g clip-path="url(#clip0_2_102)">
<path d="M11.5232 36.6826H1.84277C1.06615 36.6826 0.436523 37.3122 0.436523 38.0889V46.5939C0.436523 47.3705 1.06615 48.0001 1.84277 48.0001H12.9296V38.0889C12.9295 37.3122 12.2999 36.6826 11.5232 36.6826Z" fill="#5A73EF"/>
<path d="M25.4227 28.8076H17.1484C16.3718 28.8076 15.7422 29.4372 15.7422 30.2139V48.0001H26.829V30.2139C26.829 29.4372 26.1993 28.8076 25.4227 28.8076Z" fill="#5A73EF"/>
<path d="M44.7938 7.59469L47.6279 4.51875C48.0066 4.10813 48.106 3.51281 47.882 3.00187C47.6579 2.49 47.1526 2.16 46.5938 2.16H37.5283V1.40625C37.5283 0.63 36.8992 0 36.1221 0C35.3458 0 34.7158 0.63 34.7158 1.40625V17.8125H31.0474C30.2707 17.8125 29.6411 18.4421 29.6411 19.2188V48H40.967C41.7441 48 42.3732 47.37 42.3732 46.5938V19.2188C42.3732 18.4425 41.7441 17.8125 40.967 17.8125H37.5283V12.7809H46.5938C47.1629 12.7809 47.6757 12.4378 47.8932 11.9119C48.1107 11.3859 47.9898 10.7803 47.5866 10.3791L44.7938 7.59469Z" fill="#5A73EF"/>
<path d="M23.8644 12.0735C24.2095 12.7693 25.0531 13.0535 25.749 12.7085C26.4448 12.3634 26.7291 11.5197 26.384 10.8239C23.8346 5.68291 24.0925 6.20116 24.0555 6.13131C23.7912 5.632 23.2474 5.3305 22.6684 5.3905C22.6644 5.39087 22.6604 5.39172 22.6564 5.39219C22.5413 5.40512 22.8485 5.34484 17.5222 6.46572C16.7622 6.62566 16.2758 7.37144 16.4357 8.13147C16.5751 8.79381 17.1594 9.24841 17.8103 9.24841C18.0061 9.24841 17.88 9.26463 20.3532 8.74413C18.5091 12.3638 16.109 15.6625 13.1944 18.5773C9.62229 22.1495 5.47198 24.9501 0.858819 26.9012C0.143506 27.2039 -0.191087 28.0289 0.111444 28.7442C0.414163 29.4602 1.23963 29.7939 1.95438 29.4917C6.90279 27.3987 11.3536 24.3957 15.1831 20.566C18.3043 17.4448 20.876 13.9118 22.853 10.0343L23.8644 12.0735Z" fill="#5A73EF"/>
</g>
<defs>
<clipPath id="clip0_2_102">
<rect width="48" height="48" fill="white"/>
</clipPath>
</defs>
</svg>
