<svg width="48" height="48" viewBox="0 0 48 48" fill="none" xmlns="http://www.w3.org/2000/svg">
<g clip-path="url(#clip0_2_74)">
<path d="M32.9771 47.4154C33.6722 47.8437 34.5469 47.8522 35.2474 47.433C36.7069 46.5595 38.914 45.0934 41.1143 43.082C43.1473 41.2235 44.7584 39.2736 45.9027 37.2865C53.2473 24.3358 39.2423 19.0613 35.4002 27.5746C35.2347 27.9959 34.8946 28.3325 34.4579 28.4511C33.735 28.6475 33.0203 28.2621 32.7652 27.6042C31.7986 25.1102 29.3452 23.4367 26.6672 23.4442C22.871 23.3846 20.1145 26.8916 20.189 30.6084C20.2303 38.6871 29.1226 45.0403 32.9771 47.4154Z" fill="#5A73EF"/>
<path d="M19.9754 39.0436C18.8957 37.2956 18.1492 35.5227 17.7415 33.7446C16.8202 33.7444 14.4618 33.6277 12.0932 31.3235C11.549 30.7816 11.5034 29.8942 12.029 29.3344C12.5769 28.7508 13.4945 28.7418 14.0539 29.3047C15.3989 30.6584 16.8192 30.8912 17.3821 30.928C17.3788 30.7808 17.3719 30.6335 17.3763 30.4865C17.383 29.3581 17.5668 28.2502 17.9083 27.2082V15.1623H16.8024C14.8655 15.1623 13.2874 16.7276 13.2665 18.6596C13.2584 19.4038 12.7048 20.0489 11.9625 20.1017C11.1388 20.1604 10.4524 19.5095 10.4524 18.6984C10.4524 17.3849 10.8533 16.1632 11.5392 15.1494C11.5644 15.1077 11.5917 15.0669 11.6216 15.0272C12.9515 13.2639 12.5368 11.1216 11.3656 10.0455C9.99893 8.72687 11.732 6.7248 13.2039 7.91432C14.5417 9.1059 15.2345 10.7999 15.2514 12.5408C15.7481 12.4157 16.2675 12.3484 16.8025 12.3484H17.9085V2.0201C17.9085 1.27658 17.3975 0.6337 16.6752 0.456801C14.2963 -0.161501 11.7 1.1477 10.7416 3.29638C10.635 3.52345 10.3937 3.65411 10.1451 3.62035C6.72649 3.13205 3.58171 5.86826 3.60947 9.3266C3.62016 9.56222 3.48913 9.7802 3.27528 9.88093C-0.866559 11.7999 -1.14476 17.7512 2.80986 20.0436C3.19208 20.2699 3.17482 20.8287 2.78369 21.0393C-0.950882 23.0082 -0.800246 28.5485 3.03825 30.3115C3.26533 30.4182 3.39599 30.6594 3.36213 30.9081C2.87317 34.3247 5.6106 37.4729 9.06839 37.4438C9.30541 37.4366 9.51917 37.5796 9.61128 37.7982C10.4456 39.7692 12.4274 41.069 14.7784 41.069L14.8273 41.0724C17.1377 41.0724 18.8574 40.0413 19.9904 39.0673C19.9855 39.0593 19.9803 39.0515 19.9754 39.0436Z" fill="#5A73EF"/>
<path d="M20.7223 16.0538C22.4167 15.1919 23.3167 13.4662 23.2274 11.9209C23.1825 11.1452 23.775 10.48 24.5507 10.4352C25.3269 10.3902 25.9917 10.9829 26.0365 11.7586C26.145 13.6351 25.4823 15.4557 24.1706 16.8851C23.2309 17.909 22.0349 18.6592 20.7222 19.0655V22.8721C22.366 21.4224 24.4542 20.6305 26.6641 20.6305C28.589 20.6289 30.4419 21.204 32.0182 22.3025C32.8075 22.8526 33.4995 23.5126 34.077 24.2603C34.619 23.5586 35.263 22.9354 35.9926 22.4064C35.6854 21.9189 35.3427 21.4901 35.0299 21.1682C34.7522 20.8825 34.8364 20.4071 35.2007 20.2461C36.9816 19.4593 38.2542 17.8058 38.2542 15.7257C38.2542 13.6469 37.0318 11.8538 35.2666 11.0254C35.0394 10.9187 34.9087 10.6774 34.9426 10.4287C35.4336 7.00086 32.6771 3.84858 29.2097 3.89332C28.9829 3.89463 28.7791 3.76397 28.682 3.55903C27.5847 1.10298 24.526 -0.342128 21.8527 0.498095C21.1776 0.697036 20.7224 1.32866 20.7224 2.0325C20.7223 2.03241 20.7223 16.0538 20.7223 16.0538Z" fill="#5A73EF"/>
</g>
<defs>
<clipPath id="clip0_2_74">
<rect width="48" height="48" fill="white"/>
</clipPath>
</defs>
</svg>
